<svg id="Layer_1" data-name="Layer 1" xmlns="http://www.w3.org/2000/svg" viewBox="0 0 592.94 468"><defs><style>.cls-1{fill:#cfcdca;}</style></defs><title>Untitled-1</title><path class="cls-1" d="M332.57,167C326.3,26.07,235.31.45,156.87.45,156.87.45,0-18.76,0,192.6,0,333.5,69,384.74,175.7,384.74S338.85,307.88,332.57,167ZM171.82,295.07c-58.6,0-96.52-28.15-96.52-105.55C75.3,73.41,161.48,84,161.48,84,204.57,84,254.55,98,258,175.45S230.42,295.07,171.82,295.07Z"/><path class="cls-1" d="M434.41,378.33c-58.6,0-96.52-28.15-96.52-105.55,0-116.11,86.18-105.55,86.18-105.55,35.79,0,76.31,9.75,91,57.39h77.87C577.3,106.18,492.89,83.72,419.47,83.72c0,0-156.87-19.21-156.87,192.14,0,140.9,69,192.14,175.7,192.14,85.29,0,138.45-49.18,153.14-140.9H511.58C498.63,360.55,472.34,378.33,434.41,378.33Z"/></svg>